HIERARCHY
ROOT hip
{
	OFFSET 0.000000 0.000000 0.000000 
	CHANNELS 6 Xposition Yposition Zposition Xrotation Zrotation Yrotation
	JOINT abdomen
	{
		OFFSET 0.000000 3.402643 0.000000 
		CHANNELS 3 Xrotation Zrotation Yrotation
		JOINT chest
		{
			OFFSET 0.000000 8.438565 -0.680529 
			CHANNELS 3 Xrotation Zrotation Yrotation
			JOINT neck
			{
				OFFSET 0.000000 10.207942 -0.272212 
				CHANNELS 3 Xrotation Zrotation Yrotation
				JOINT head
				{
					OFFSET 0.000000 3.130431 0.000000 
					CHANNELS 3 Xrotation Zrotation Yrotation
					End Site
					{
						OFFSET 0.000000 3.130435 0.000000 
					}
				}
			}
			JOINT lCollar
			{
				OFFSET 3.470700 6.669187 -0.816635 
				CHANNELS 3 Yrotation Zrotation Xrotation
				JOINT lShldr
				{
					OFFSET 3.198488 0.000000 0.000000 
					CHANNELS 3 Zrotation Yrotation Xrotation
					JOINT lForeArm
					{
						OFFSET 10.139888 0.000000 0.000000 
						CHANNELS 3 Yrotation Zrotation Xrotation
						JOINT lHand
						{
							OFFSET 8.370511 0.000000 0.000000 
							CHANNELS 3 Zrotation Yrotation Xrotation
							End Site
							{
								OFFSET 4.083176 0.000000 0.000000 
							}
						}
					}
				}
			}
			JOINT rCollar
			{
				OFFSET -3.470700 6.669187 -0.816635 
				CHANNELS 3 Yrotation Zrotation Xrotation
				JOINT rShldr
				{
					OFFSET -3.198488 0.000000 0.000000 
					CHANNELS 3 Zrotation Yrotation Xrotation
					JOINT rForeArm
					{
						OFFSET -10.139888 0.000000 0.000000 
						CHANNELS 3 Yrotation Zrotation Xrotation
						JOINT rHand
						{
							OFFSET -8.370511 0.000000 0.000000 
							CHANNELS 3 Zrotation Yrotation Xrotation
							End Site
							{
								OFFSET -4.083176 0.000000 0.000000 
							}
						}
					}
				}
			}
		}
	}
	JOINT lThigh
	{
		OFFSET 5.308129 -1.633274 1.361059 
		CHANNELS 3 Xrotation Zrotation Yrotation
		JOINT lShin
		{
			OFFSET -2.041588 -20.007561 0.000000 
			CHANNELS 3 Xrotation Zrotation Yrotation
			JOINT lFoot
			{
				OFFSET 0.000000 -19.190928 -1.224953 
				CHANNELS 3 Xrotation Yrotation Zrotation
				End Site
				{
					OFFSET 0.000000 -2.449906 4.627600 
				}
			}
		}
	}
	JOINT rThigh
	{
		OFFSET -5.308129 -1.633274 1.361059 
		CHANNELS 3 Xrotation Zrotation Yrotation
		JOINT rShin
		{
			OFFSET 2.041588 -20.007561 0.000000 
			CHANNELS 3 Xrotation Zrotation Yrotation
			JOINT rFoot
			{
				OFFSET 0.000000 -19.190928 -1.224953 
				CHANNELS 3 Xrotation Yrotation Zrotation
				End Site
				{
					OFFSET 0.000000 -2.449906 4.627600 
				}
			}
		}
	}
}
MOTION
Frames: 8
Frame Time: 0.016667
-0.018277 44.403526 2.495513 0.949651 -4.061940 -2.763110 -20.326500 1.440730 0.393292 17.792999 0.087788 0.405919 18.116800 -1.825330 -0.243815 13.271600 3.836510 0.442119 2.000000 -2.000000 0.000000 87.869202 170.317993 1.861780 38.398800 -0.321994 0.084977 0.044756 -0.006289 -139.167999 -2.000000 2.000000 0.000000 -90.795502 -164.261993 -1.787780 -42.031700 0.316399 0.091541 -0.054590 -0.007845 -134.119003 -8.708234 4.525237 -8.586185 25.855570 3.640923 1.738111 -22.961897 11.730113 5.271427 2.597732 2.887428 2.785771 3.532541 -4.182411 -0.124273 -17.021021 -10.504578 -3.356506 
-0.015892 44.404942 2.485393 0.959441 -4.061930 -2.793100 -20.316799 1.456820 0.408384 17.802700 0.078035 0.416168 18.116301 -1.833930 -0.237127 13.271600 3.836510 0.442119 2.000000 -2.000000 0.000000 87.849701 170.367004 1.813070 38.330502 -0.322096 0.084849 0.044752 -0.006179 -139.128998 -2.000000 2.000000 0.000000 -90.776001 -164.272003 -1.836580 -41.992599 0.316461 0.091472 -0.054602 -0.008091 -134.031006 -8.704870 4.514393 -8.605912 25.865131 3.643217 1.738557 -22.991627 11.785398 5.287926 2.566839 2.885556 2.811570 3.555508 -4.188078 -0.114991 -17.015989 -10.516115 -3.352330 
-0.013615 44.406235 2.474428 0.979070 -4.100970 -2.834220 -20.297400 1.478710 0.411147 17.832001 0.078037 0.425974 18.097000 -1.907330 -0.252211 13.261300 3.798080 0.434554 2.000000 -2.000000 0.000000 87.810600 170.425003 1.764380 38.252300 -0.322211 0.084703 0.044748 -0.006070 -139.089996 -2.000000 2.000000 0.000000 -90.795502 -164.281998 -1.836560 -41.963299 0.316508 0.091420 -0.054605 -0.008145 -134.011993 -8.731672 4.536563 -8.654542 25.875025 3.642970 1.738405 -23.038836 11.841108 5.330105 2.542741 2.925961 2.871609 3.524863 -4.188881 -0.124216 -16.990244 -10.524055 -3.342238 
-0.012330 44.406357 2.464306 0.988885 -4.120480 -2.854780 -20.297501 1.491300 0.416905 17.841801 0.078037 0.425987 18.087400 -1.971550 -0.263966 13.251300 3.778930 0.430781 2.000000 -2.000000 0.000000 87.791100 170.445007 1.764420 38.213299 -0.322269 0.084629 0.044749 -0.006097 -139.100006 -2.000000 2.000000 0.000000 -90.805298 -164.281998 -1.836560 -41.943802 0.316539 0.091385 -0.054605 -0.008145 -134.011993 -8.755743 4.555767 -8.663537 25.873716 3.649913 1.730228 -23.050465 11.864455 5.334935 2.501180 2.934192 2.887906 3.536425 -4.191426 -0.115031 -16.991838 -10.521607 -3.340696 
-0.011789 44.405582 2.454836 0.998663 -4.110710 -2.855310 -20.297501 1.487870 0.407761 17.832001 0.078037 0.425974 18.088600 -2.027930 -0.291879 13.250900 3.750010 0.416327 2.000000 -2.000000 0.000000 87.791100 170.445007 1.783960 38.213299 -0.322269 0.084629 0.044752 -0.006179 -139.128998 -2.000000 2.000000 0.000000 -90.815102 -164.281998 -1.817030 -41.943802 0.316539 0.091385 -0.054601 -0.008063 -134.041000 -8.777591 4.555562 -8.662591 25.884178 3.648330 1.739524 -23.036074 11.825841 5.318585 2.489592 2.931388 2.886117 3.541878 -4.186819 -0.114563 -16.969242 -10.513366 -3.356277 
-0.013182 44.404045 2.441816 0.979058 -4.091200 -2.863340 -20.297501 1.491300 0.416905 17.812500 0.097544 0.425012 18.078699 -1.963540 -0.280634 13.251300 3.778930 0.421016 2.000000 -2.000000 0.000000 87.791100 170.434998 1.783930 38.242599 -0.322226 0.084684 0.044751 -0.006152 -139.119003 -2.000000 2.000000 0.000000 -90.824799 -164.281998 -1.807260 -41.924198 0.316570 0.091350 -0.054601 -0.008063 -134.041000 -8.761443 4.528752 -8.692474 25.874960 3.643444 1.738520 -23.041342 11.836500 5.327054 2.498225 2.909723 2.895046 3.545754 -4.183542 -0.114945 -16.999447 -10.509883 -3.335374 
-0.014587 44.402763 2.429122 0.949651 -4.061940 -2.870530 -20.297501 1.491300 0.416905 17.783199 0.107296 0.424490 18.068800 -1.899160 -0.269410 13.241900 3.807970 0.425056 2.000000 -2.000000 0.000000 87.781303 170.434998 1.774170 38.281601 -0.322168 0.084757 0.044748 -0.006070 -139.089996 -2.000000 2.000000 0.000000 -90.834602 -164.281998 -1.797500 -41.904701 0.316601 0.091316 -0.054602 -0.008091 -134.031006 -8.755280 4.501288 -8.711529 25.874937 3.643630 1.738557 -23.074024 11.857849 5.344401 2.498513 2.882308 2.902608 3.554672 -4.189280 -0.124138 -16.993443 -10.497612 -3.339934 
-0.014118 44.403278 2.421977 0.949663 -4.071710 -2.851160 -20.297701 1.506190 0.400990 17.792999 0.126805 0.423566 18.068899 -1.908440 -0.272438 13.241900 3.807970 0.425056 2.000000 -2.000000 0.000000 87.752098 170.425003 1.744850 38.340199 -0.322081 0.084867 0.044744 -0.005961 -139.050995 -2.000000 2.000000 0.000000 -90.834602 -164.281998 -1.856090 -41.904701 0.316601 0.091316 -0.054606 -0.008173 -134.001999 -8.773452 4.508518 -8.711108 25.894640 3.643768 1.738434 -23.086441 11.855404 5.345987 2.500620 2.894645 2.894419 3.542673 -4.186637 -0.124284 -16.993874 -10.496946 -3.339532 
